/* XPM */
static char *rcp04310954754709[] = {
/* columns rows colors chars-per-pixel */
"64 64 4 1 ",
"  c gray5",
". c #FEBD25",
"X c #EBE59F",
"o c white",
/* pixels */
"XXXXXXXXXXXXXXXXXXXXXXXX                   XXXXXXXXXXXXXXXXXXXXX",
"XXXXXXXXXXXXXXXXXXXXXXXX                   XXXXXXXXXXXXXXXXXXXXX",
"XXXXXXXXXXXXXXXXXXXXXXXX                   XXXXXXXXXXXXXXXXXXXXX",
"XXXXXXXXXXXXXXXXXXXXXXXX                   XXXXXXXXXXXXXXXXXXXXX",
"XXXXXXXXXXXXXXXXXXXXXXXX                   XXXXXXXXXXXXXXXXXXXXX",
"XXXXXXXXXXXXXXX         ...................          XXXXXXXXXXX",
"XXXXXXXXXXXXXXX         ...................          XXXXXXXXXXX",
"XXXXXXXXXXXXXXX         ...................          XXXXXXXXXXX",
"XXXXXXXXXXXXXXX         ...................          XXXXXXXXXXX",
"XXXXXXXXXX     ......................................    XXXXXXX",
"XXXXXXXXXX     ......................................    XXXXXXX",
"XXXXXXXXXX     ......................................    XXXXXXX",
"XXXXXXXXXX     ......................................    XXXXXXX",
"XXXXXXXXXX     ......................................    XXXXXXX",
"XXXXXXXXXX     ..............ooooooooo...............    XXXXXXX",
"XXXXXXXXXX     ..............ooooooooo...............    XXXXXXX",
"XXXXXXXXXX     ..............ooooooooo...............    XXXXXXX",
"XXXXXXXXXX     ..............ooooooooo...............    XXXXXXX",
"XXXXX     ..............ooooo.........     ..............     XX",
"XXXXX     ..............ooooo.........     ..............     XX",
"XXXXX     ..............ooooo.........     ..............     XX",
"XXXXX     ..............ooooo.........     ..............     XX",
"XXXXX     ..............ooooo.........     ..............     XX",
"XXXXX     ..............ooooo.........     ..............     XX",
"XXXXX     ..............ooooo.........     ..............     XX",
"XXXXX     ..............ooooo.........     ..............     XX",
"XXXXX     ..............ooooo.........     ..............     XX",
"XXXXX     ..............ooooo.........     ..............     XX",
"XXXXX     ..............ooooo.........     ..............     XX",
"XXXXX     ..............ooooo.........     ..............     XX",
"XXXXX     ..............ooooo.........     ..............     XX",
"XXXXX     ..............ooooo.........     ..............     XX",
"XXXXX     ..............ooooo.........     ..............     XX",
"XXXXX     ..............ooooo.........     ..............     XX",
"XXXXX     ..............ooooo.........     ..............     XX",
"XXXXX     ..............ooooo.........     ..............     XX",
"XXXXX     ..............ooooo.........     ..............     XX",
"XXXXX     ..............ooooo.........     ..............     XX",
"XXXXX     ..............ooooo.........     ..............     XX",
"XXXXX     ..............ooooo.........     ..............     XX",
"XXXXX     ..............ooooo.........     ..............     XX",
"XXXXX     ..............ooooo.........     ..............     XX",
"XXXXX     ..............ooooo.........     ..............     XX",
"XXXXX     ..............ooooo.........     ..............     XX",
"XXXXX     ..............ooooo.........     ..............     XX",
"XXXXX     ..............ooooo.........     ..............     XX",
"XXXXXXXXXX     ..............         ...............    XXXXXXX",
"XXXXXXXXXX     ..............         ...............    XXXXXXX",
"XXXXXXXXXX     ..............         ...............    XXXXXXX",
"XXXXXXXXXX     ..............         ...............    XXXXXXX",
"XXXXXXXXXX     ......................................    XXXXXXX",
"XXXXXXXXXX     ......................................    XXXXXXX",
"XXXXXXXXXX     ......................................    XXXXXXX",
"XXXXXXXXXX     ......................................    XXXXXXX",
"XXXXXXXXXX     ......................................    XXXXXXX",
"XXXXXXXXXXXXXXX         ...................          XXXXXXXXXXX",
"XXXXXXXXXXXXXXX         ...................          XXXXXXXXXXX",
"XXXXXXXXXXXXXXX         ...................          XXXXXXXXXXX",
"XXXXXXXXXXXXXXX         ...................          XXXXXXXXXXX",
"XXXXXXXXXXXXXXXXXXXXXXXX                   XXXXXXXXXXXXXXXXXXXXX",
"XXXXXXXXXXXXXXXXXXXXXXXX                   XXXXXXXXXXXXXXXXXXXXX",
"XXXXXXXXXXXXXXXXXXXXXXXX                   XXXXXXXXXXXXXXXXXXXXX",
"XXXXXXXXXXXXXXXXXXXXXXXX                   XXXXXXXXXXXXXXXXXXXXX",
"XXXXXXXXXXXXXXXXXXXXXXXX                   XXXXXXXXXXXXXXXXXXXXX"
};
