/* XPM */
static char *rcp04221565446377[] = {
/* columns rows colors chars-per-pixel */
"64 64 3 1 ",
"  c black",
". c #FEBD25",
"X c white",
/* pixels */
"                                                                ",
"                                                                ",
"                                                                ",
"                                                                ",
"                                                                ",
"                                                                ",
"                                                                ",
"                                                                ",
"                                                                ",
"                                                                ",
"                                                                ",
"                                                                ",
"                                                                ",
"                                                                ",
"                                                                ",
"                         .............                          ",
"                         .............                          ",
"                         .............                          ",
"                   .........................                    ",
"                   .........................                    ",
"                   .........................                    ",
"                   .........XXXXXXX.........                    ",
"                   .........XXXXXXX.........                    ",
"                .........XXX.......   .........                 ",
"                .........XXX.......   .........                 ",
"                .........XXX.......   .........                 ",
"                .........XXX.......   .........                 ",
"                .........XXX.......   .........                 ",
"                .........XXX.......   .........                 ",
"                .........XXX.......   .........                 ",
"                .........XXX.......   .........                 ",
"                .........XXX.......   .........                 ",
"                .........XXX.......   .........                 ",
"                .........XXX.......   .........                 ",
"                .........XXX.......   .........                 ",
"                .........XXX.......   .........                 ",
"                .........XXX.......   .........                 ",
"                .........XXX.......   .........                 ",
"                .........XXX.......   .........                 ",
"                .........XXX.......   .........                 ",
"                .........XXX.......   .........                 ",
"                   .........       .........                    ",
"                   .........       .........                    ",
"                   .........................                    ",
"                   .........................                    ",
"                   .........................                    ",
"                         .............                          ",
"                         .............                          ",
"                         .............                          ",
"                                                                ",
"                                                                ",
"                                                                ",
"                                                                ",
"                                                                ",
"                                                                ",
"                                                                ",
"                                                                ",
"                                                                ",
"                                                                ",
"                                                                ",
"                                                                ",
"                                                                ",
"                                                                ",
"                                                                "
};
