/* XPM */
static char *rcp16271553465879[] = {
/* columns rows colors chars-per-pixel */
"64 64 3 1 ",
"  c #331805",
". c #6B2F04",
"X c #9C5A3C",
/* pixels */
"                                                                ",
"                                                                ",
"  ............................. ..............................  ",
"  ............................. ..............................  ",
"  ............................. ..............................  ",
"  ............................. ..............................  ",
"  ............................. ..............................  ",
"  ............................. ..............................  ",
"  ............................. ..............................  ",
"  ............................. ..............................  ",
"  ............................. ..............................  ",
"  ............................. ..............................  ",
"  ............................. ..............................  ",
"  ............................. ..............................  ",
"  ........              ....... .......               ........  ",
"  ........ XXXXX XXXXXX ....... ....... XXXXXX XXXXXX ........  ",
"  ........ XXXXX XXXXXX ....... ....... XXXXXX XXXXXX ........  ",
"  ........ XXXXX XXXXXX ....... ....... XXXXXX XXXXXX ........  ",
"  ........ XXXXX XXXXXX ....... ....... XXXXXX XXXXXX ........  ",
"  ........              ....... ....... XXXXXX XXXXXX ........  ",
"  ........ XXXXX XXXXXX ....... .......               ........  ",
"  ........ XXXXX XXXXXX ....... ....... XXXXXX XXXXXX ........  ",
"  ........ XXXXX XXXXXX ....... ....... XXXXXX XXXXXX ........  ",
"  ........ XXXXX XXXXXX ....... ....... XXXXXX XXXXXX ........  ",
"  ........ XXXXX XXXXXX ....... ....... XXXXXX XXXXXX ........  ",
"  ........              ....... ....... XXXXXX XXXXXX ........  ",
"  ............................. .......               ........  ",
"  ............................. ..............................  ",
"  ............................. ..............................  ",
"  ............................. ..............................  ",
"  ............................. ..............................  ",
"  ............................. ..............................  ",
"  ............................. ..............................  ",
"  ............................. ..............................  ",
"  ............................. ..............................  ",
"  ............................. ..  ..........................  ",
"  ............................. ..  ..........................  ",
"  ............................. ..............................  ",
"  ............................. ..............................  ",
"  ............................. ..............................  ",
"  ............................. ..............................  ",
"  ............................. ..............................  ",
"  ............................. ..............................  ",
"  ............................. ..............................  ",
"  ............................. ..............................  ",
"  ............................. ..............................  ",
"  ............................. ..............................  ",
"  ............................. ..............................  ",
"  ............................. ..............................  ",
"  ............................. ..............................  ",
"  ............................. ..............................  ",
"  ............................. ..............................  ",
"  ............................. ..............................  ",
"  ............................. ..............................  ",
"  ............................. ..............................  ",
"  ............................. ..............................  ",
"  ............................. ..............................  ",
"  ............................. ..............................  ",
"  ............................. ..............................  ",
"  ............................. ..............................  ",
"  ............................. ..............................  ",
"  ............................. ..............................  ",
"  ............................. ..............................  ",
"  ............................. ..............................  "
};
