/* XPM */
static char *dfaa6d3250d248b1a1da1c54ac75c3b9DftccbFZ5vLKeK3V[] = {
/* columns rows colors chars-per-pixel */
"32 32 14 1 ",
"  c None",
". c #141013",
"X c #221C1A",
"o c #242234",
"O c #422433",
"+ c #5B3138",
"@ c #71413B",
"# c #403353",
"$ c #4A5462",
"% c #8E5252",
"& c #BB7547",
"* c #793A80",
"= c #8B93AF",
"- c #FEF3C0",
/* pixels */
"                                ",
"                                ",
"                                ",
"   $$$                          ",
"   #=-$o                        ",
"   o=---o                       ",
"   O==---o                      ",
"    O==--=$                     ",
"     O==--=$                    ",
"      O==--=o                   ",
"       O==---o                  ",
"        #==---o                 ",
"         #==--=o                ",
"          O==-==o      oo       ",
"           O==-==o    o%o*      ",
"            O==-==o   o%@o      ",
"             o==-==O o%%%o      ",
"              o=====OO%&%o      ",
"               o====o%&&o       ",
"                O==o%&&&X       ",
"                 Oo%&&%.*       ",
"                oo%&&@%o*       ",
"              oo%%&&@%%&o       ",
"             o%%%&&&@%&&%o      ",
"             oo%%%&Xo%&&&%X     ",
"              *ooXX**o%&&%%oo*  ",
"                      o%%+&&%X  ",
"                       Xo&@&&X  ",
"                        o&&@&X  ",
"                        X%&&&X  ",
"                        *XXXX*  ",
"                                "
};
