/* XPM */
static char *d84f9955dabe428bc570b8607bea0c56xkyqCaJ9O03pLD1G[] = {
/* columns rows colors chars-per-pixel */
"32 32 13 1 ",
"  c None",
". c #322B28",
"X c #242234",
"o c #422433",
"O c #71413B",
"+ c #333941",
"@ c #403353",
"# c #4A5462",
"$ c #8E5252",
"% c #793A80",
"& c #6D758D",
"* c #8B93AF",
"= c #DAE0EA",
/* pixels */
"                                ",
"                                ",
"                                ",
"                    #X          ",
"                   #=X          ",
"                  #**X          ",
"                 &=**=X         ",
"                &==**=X         ",
"               ##==***X         ",
"              +#===***=X        ",
"             +#===****=X        ",
"            ##====*****oX       ",
"            +****=****O$X       ",
"            @+#*****oOOO=O      ",
"              ++#*OoO$$O=O      ",
"                +OoOOOo**X      ",
"               %X$OOOo**=@      ",
"               .$o$OX..==@      ",
"              .OO$o.X  %=%      ",
"             .$$Oo.X    %%      ",
"            .O$Oo@              ",
"           @$OO$@               ",
"         .@oO$O@                ",
"        .@OO$O.                 ",
"       .$$O$O.@                 ",
"      .$$$$O.@                  ",
"      @$$$o..                   ",
"       @$$.@                    ",
"        @@                      ",
"                                ",
"                                ",
"                                "
};
