/* XPM */
static char *_580d65a4d0e4226aa8f5d6ade6fcd49FlZOPQHdk01ZjOtl[] = {
/* columns rows colors chars-per-pixel */
"32 32 12 1 ",
"  c None",
". c #221C1A",
"X c #242234",
"o c #422433",
"O c #5B3138",
"+ c #71413B",
"@ c #403353",
"# c #5A4E44",
"$ c #796755",
"% c #4A5462",
"& c #A08662",
"* c white",
/* pixels */
"                                ",
"  %%                            ",
"  %&%                           ",
"  %&&@                          ",
"  %*&&@                         ",
"  %**&&@                        ",
"  @o**&&X                       ",
"    o**&&X                      ",
"     X**&&X                     ",
"      X**&&%                    ",
"       X**&&%                   ",
"        X**&&X                  ",
"         X***&X                 ",
"          X***&X                ",
"           X&*&&X               ",
"            X&*&&@    X         ",
"             X&*&*@X XXX        ",
"              X&&*$XXX++X       ",
"               X&$##oOO++X      ",
"                X##XooOXXO.     ",
"                XXXOOo. XX+.    ",
"               XX+++++O. XO+.   ",
"               oXXO++O+O..OOX   ",
"                  X.O+O+OOo.    ",
"                   X.O+OO+.X    ",
"                    ..O++++.    ",
"                     .X+oO+.    ",
"                      .+OO+.    ",
"                       .++.     ",
"                        ..      ",
"                                ",
"                                "
};
