/* XPM */
static char *rcp15112361352559[] = {
/* columns rows colors chars-per-pixel */
"64 64 5 1 ",
"  c #0F0D0F",
". c #805008",
"X c #CC800E",
"o c #FFD500",
"O c #EBE59F",
/* pixels */
"OOOOOOOO                                                OOOOOOOO",
"OOOOOOOO                                                OOOOOOOO",
"OOOOOOOO                                                OOOOOOOO",
"OOOOOOOO                                                OOOOOOOO",
"OOOO    OOOOOOOOOOOOXXXXXXXXXXXXXXXXXXXXXXXXXXXXXXXX....    OOOO",
"OOOO    OOOOOOOOOOOOXXXXXXXXXXXXXXXXXXXXXXXXXXXXXXXX....    OOOO",
"OOOO    OOOOOOOOOOOOXXXXXXXXXXXXXXXXXXXXXXXXXXXXXXXX....    OOOO",
"OOOO    OOOOOOOOOOOOXXXXXXXXXXXXXXXXXXXXXXXXXXXXXXXX....    OOOO",
"    OOOOOOOOoooo                            ooooXXXXXXXX....    ",
"    OOOOOOOOoooo                            ooooXXXXXXXX....    ",
"    OOOOOOOOoooo                            ooooXXXXXXXX....    ",
"    OOOOOOOOoooo                            ooooXXXXXXXX....    ",
"    OOOOoooo    OOOOOOOOOOOOOOOOOOOOOOOOOOOO    ooooXXXX....    ",
"    OOOOoooo    OOOOOOOOOOOOOOOOOOOOOOOOOOOO    ooooXXXX....    ",
"    OOOOoooo    OOOOOOOOOOOOOOOOOOOOOOOOOOOO    ooooXXXX....    ",
"    OOOOoooo    OOOOOOOOOOOOOOOOOOOOOOOOOOOO    ooooXXXX....    ",
"    OOOO    OOOOOOOOOOOOOOOOOOOOOOOOOOOOOOOOOOOO    XXXX....    ",
"    OOOO    OOOOOOOOOOOOOOOOOOOOOOOOOOOOOOOOOOOO    XXXX....    ",
"    OOOO    OOOOOOOOOOOOOOOOOOOOOOOOOOOOOOOOOOOO    XXXX....    ",
"    OOOO    OOOOOOOOOOOOOOOOOOOOOOOOOOOOOOOOOOOO    XXXX....    ",
"    XXXX    OOOOOOOOOOOO            OOOOOOOOOOOO    XXXX....    ",
"    XXXX    OOOOOOOOOOOO            OOOOOOOOOOOO    XXXX....    ",
"    XXXX    OOOOOOOOOOOO            OOOOOOOOOOOO    XXXX....    ",
"    XXXX    OOOOOOOOOOOO            OOOOOOOOOOOO    XXXX....    ",
"    OOOOoooo                        OOOOOOOOOOOO    XXXX....    ",
"    OOOOoooo                        OOOOOOOOOOOO    XXXX....    ",
"    OOOOoooo                        OOOOOOOOOOOO    XXXX....    ",
"    OOOOoooo                        OOOOOOOOOOOO    XXXX....    ",
"    XXXXoooooooooooo    OOOOOOOOOOOOOOOOOOOO    ooooXXXX....    ",
"    XXXXoooooooooooo    OOOOOOOOOOOOOOOOOOOO    ooooXXXX....    ",
"    XXXXoooooooooooo    OOOOOOOOOOOOOOOOOOOO    ooooXXXX....    ",
"    XXXXoooooooooooo    OOOOOOOOOOOOOOOOOOOO    ooooXXXX....    ",
"    XXXXoooooooooooo    OOOOOOOOOOOO        ooooooooXXXX....    ",
"    XXXXoooooooooooo    OOOOOOOOOOOO        ooooooooXXXX....    ",
"    XXXXoooooooooooo    OOOOOOOOOOOO        ooooooooXXXX....    ",
"    XXXXoooooooooooo    OOOOOOOOOOOO        ooooooooXXXX....    ",
"    XXXXoooooooooooooooo            ooooooooooooooooXXXX....    ",
"    XXXXoooooooooooooooo            ooooooooooooooooXXXX....    ",
"    XXXXoooooooooooooooo            ooooooooooooooooXXXX....    ",
"    XXXXoooooooooooooooo            ooooooooooooooooXXXX....    ",
"    XXXXoooooooooooo    OOOOOOOOOOOO    ooooooooooooXXXX....    ",
"    XXXXoooooooooooo    OOOOOOOOOOOO    ooooooooooooXXXX....    ",
"    XXXXoooooooooooo    OOOOOOOOOOOO    ooooooooooooXXXX....    ",
"    XXXXoooooooooooo    OOOOOOOOOOOO    ooooooooooooXXXX....    ",
"    XXXXoooooooooooo    OOOOOOOOOOOO    ooooooooooooXXXX....    ",
"    XXXXoooooooooooo    OOOOOOOOOOOO    ooooooooooooXXXX....    ",
"    XXXXoooooooooooo    OOOOOOOOOOOO    ooooooooooooXXXX....    ",
"    XXXXoooooooooooo    OOOOOOOOOOOO    ooooooooooooXXXX....    ",
"    XXXXXXXXoooooooooooo            ooooooooooooXXXXXXXX....    ",
"    XXXXXXXXoooooooooooo            ooooooooooooXXXXXXXX....    ",
"    XXXXXXXXoooooooooooo            ooooooooooooXXXXXXXX....    ",
"    XXXXXXXXoooooooooooo            ooooooooooooXXXXXXXX....    ",
"    ....XXXXXXXXXXXXXXXXXXXXXXXXXXXXXXXXXXXXXXXXXXXX........    ",
"    ....XXXXXXXXXXXXXXXXXXXXXXXXXXXXXXXXXXXXXXXXXXXX........    ",
"    ....XXXXXXXXXXXXXXXXXXXXXXXXXXXXXXXXXXXXXXXXXXXX........    ",
"    ....XXXXXXXXXXXXXXXXXXXXXXXXXXXXXXXXXXXXXXXXXXXX........    ",
"OOOO    ................................................    OOOO",
"OOOO    ................................................    OOOO",
"OOOO    ................................................    OOOO",
"OOOO    ................................................    OOOO",
"OOOOOOOO                                                OOOOOOOO",
"OOOOOOOO                                                OOOOOOOO",
"OOOOOOOO                                                OOOOOOOO",
"OOOOOOOO                                                OOOOOOOO"
};
