/* XPM */
static char *rcp14554111459502[] = {
/* columns rows colors chars-per-pixel */
"64 64 2 1 ",
"  c #0F0D0F",
". c #D26B20",
/* pixels */
"..............................    ..............................",
"..............................    ..............................",
"..............................    ..............................",
"..............................    ..............................",
"..............................    ..............................",
"..............................    ..............................",
"..............................    ..............................",
"                                                                ",
"                                                                ",
"                                                                ",
"                                                                ",
"                                                                ",
"............    ....................................     .......",
"............    ....................................     .......",
"............    ....................................     .......",
"............    ....................................     .......",
"............    ....................................     .......",
"............    ....................................     .......",
"............    ....................................     .......",
"............    ....................................     .......",
"............    ....................................     .......",
"............    ....................................     .......",
"............    ....................................     .......",
"............    ....................................     .......",
"............    ....................................     .......",
"                                                                ",
"                                                                ",
"                                                                ",
"                                                                ",
"                                                                ",
"..............................    ..............................",
"..............................    ..............................",
"..............................    ..............................",
"..............................    ..............................",
"..............................    ..............................",
"..............................    ..............................",
"..............................    ..............................",
"..............................    ..............................",
"..............................    ..............................",
"..............................    ..............................",
"..............................    ..............................",
"..............................    ..............................",
"..............................    ..............................",
"                                                                ",
"                                                                ",
"                                                                ",
"                                                                ",
"............    ....................................     .......",
"............    ....................................     .......",
"............    ....................................     .......",
"............    ....................................     .......",
"............    ....................................     .......",
"............    ....................................     .......",
"............    ....................................     .......",
"............    ....................................     .......",
"............    ....................................     .......",
"............    ....................................     .......",
"............    ....................................     .......",
"............    ....................................     .......",
"............    ....................................     .......",
"............    ....................................     .......",
"                                                                ",
"                                                                ",
"                                                                "
};
