/* XPM */
static char *rcp14523486563919[] = {
/* columns rows colors chars-per-pixel */
"64 64 9 1 ",
"  c black",
". c #0F0D0F",
"X c #0FDC0A",
"o c #71C700",
"O c #99FF00",
"+ c #A9FB39",
"@ c #EBE488",
"# c #EBE59F",
"$ c #F5E49C",
/* pixels */
"################################################################",
"################################################################",
"################################################################",
"################################################################",
"################################################################",
"################################################################",
"################################################################",
"################################################################",
"################################################################",
"################################################################",
"################################################################",
"################################################################",
"################################################################",
"################################################################",
"################################################################",
"################################################################",
"################################################################",
"################################################################",
"################################################################",
"################################################################",
"################################################################",
"##################...............................###############",
"##################.+++++++++++++++++++++++++++++.###############",
"##################.XXXXX++++++XXXXXXXXXXXXXXXXXX.###############",
"##################.#+#XX+#+#+#X+#XXXXXXXXX+X+X#+.###############",
"##################.+#+XX#+++#+X++XXXXXXXXXX+X+++.###############",
"##################.#+#XX+#+#+$X+#XXXXXXXXX+X+X#+.###############",
"##################.+++XX++++++X++XXXXXXXXXX+X+++.###############",
"##################.#+#XX+#+$+$X+#XXXXXXXXX+X+X#+.###############",
"##################.+#+XX#+++$+X++XXXXXXXXXX+X+++.###############",
"##################.#+#XX+#+$+$X+#XXXXXXXXX+X+X#+.###############",
"##################.+++XX++++++X++XXXXXXXXXX+X+++.###############",
"##################.#+#XX+#+$+$X+#XXXXXXXXX+X+X@+.###############",
"##################.+#+XX#+++$+X++XXXXXXXXXX+X+++.###############",
"##################.#+#XX+#+$+$X+#XXXXXXXXX+X+X@+.###############",
"##################...............................###############",
"####################...........................#################",
"####################.+++XX+++++X++XXXXXXX+X+++.#################",
"####################.#+#XX+#+#+X+#XXXXXXXX+X#+.#################",
"####################.+++XX++#++X++XXXXXXX+X+++.#################",
"####################.#+#XX+#+#+X+#XXXXXXXX+X#+.#################",
"####################.+++XX+++++X++XXXXXXX+X+++.#################",
"####################.#+#XX+#+#+X+#XXXXXXXX+X#+.#################",
"####################.#+#XX+#+#+X+#XXXXXXXX+X#+.#################",
"####################.+++XX+++++X++XXXXXXX+X+++.#################",
"####################.#+#XX+#+#+X+$XXXXXXXX+X$+.#################",
"####################.+++XX++#++X++XXXXXXX+X+++.#################",
"####################.#+#XX+#+#+X+#XXXXXXXX+X#+.#################",
"##########....######.+++XX+++++X++XXXXXXX+X+++.########....#####",
"#########.OOOO.#####.#+#XX+#+#+....XXXXXXX+X#+.#######.OOOO.####",
"#######..OOOOOO.####.+++XX++#+.OOOO.XXXXX+X+++.#####..OOOOOO.###",
"######.OOOOOOOO.#.##.#+#XX+#..OOOOOO.XXXXX+X#+.####.OOOOOOOO.#.#",
"######.OOOOOOOOO.O.#.+++XX+.OOOOOOOO.X.XX+X+++.####.OOOOOOOOO.O.",
"######.OOOOOOOOOOOO..#+#XX+.OOOOOOOOO.O.XX+X#+.####.OOOOOOOOOOOO",
"#####.OOOOOOOoOOOOO..+++XX+.OOOOOOOOOOOO.+X+++.###.OOOOOOOoOOOOO",
"####.OOOOooOOOoOOOO..#+#XX.OOOOOOOoOOOOO.X+X#+.##.OOOOooOOOoOOOO",
"#...OOOOoOOOOOOOOOOO.+++X.OOOOooOOOoOOOO.+X+++...OOOOoOOOOOOOOOO",
".OOOOOOOOOOOOOOOOOOO.#...OOOOoOOOOOOOOOOO.+X.+.OOOOOOOOOOOOOOOOO",
"OOOOOOOOOOOOOOOOOOOO..OOOOOOOOOOOOOOOOOOO.X.O..OOOOOOOOOOOOOOOOO",
"OOOOOOOOOOOOOOOOOOOO.OOOOOOOOOOOOOOOOOOOOO.OO..OOOOOOOOOOOOOOOOO",
"OOOOOOOOOOOOOOOOOOOO.OOOOOOOOOOOOOOOOOOOOOOOO...OOOOOOOOOOOOOOOO",
"OOOOOOOOOOOOOOOOOO..OOOOOOOOOOOOOOOOOOOOOOOOOO O.OOOOOOOOOOOOOOO",
"OOOOOOOOOOOOOOOOO.OOOOOOOOOOOOOOOOOOOOOOOOOOOOOO.OOOOOOOOOOOOOOO",
"OOOOOOOOOOOOOOOOO.OOOOOOOOOOOOOOOOOOOOOOOOOOOOOO.OOOOOOOOOOOOOOO"
};
