/* XPM */
static char *rcp13451184860240[] = {
/* columns rows colors chars-per-pixel */
"128 64 3 1 ",
"  c #2F3699",
". c #546D8E",
"X c white",
/* pixels */
"................................................................................................................................",
"................................................................................................................................",
"................................................................................................................................",
"................................................................................................................................",
".....                                                                                                                      .....",
".....                                                                                                                      .....",
".....                                                                                                                      .....",
".....                                                                                                                      .....",
".....                                                                                                                      .....",
".....                                                                                                                      .....",
".....                                                                                                                      .....",
".....                                                                                                                      .....",
".....                                                                                                                      .....",
".....                                                                                                                      .....",
".....                                                                                                                      .....",
".....                                                                                                                      .....",
".....                                                                                                                      .....",
".....                                                                                                                      .....",
".....                                                                                                                      .....",
".....                                                                                                                      .....",
".....                                                                                                                      .....",
".....                                                                                                                      .....",
".....                                                                                                                      .....",
".....                                                                                                                      .....",
".....                       XXXXXXXXXXXX        XXXX                    XXXXXXXX        XXXX            XXXX               .....",
".....                       XXXXXXXXXXXX        XXXX                    XXXXXXXX        XXXX            XXXX               .....",
".....                       XXXXXXXXXXXX        XXXX                    XXXXXXXX        XXXX            XXXX               .....",
".....                       XXXXXXXXXXXX        XXXX                    XXXXXXXX        XXXX            XXXX               .....",
".....                       XXXX        XXXX    XXXX                XXXX        XXXX    XXXX            XXXX               .....",
".....                       XXXX        XXXX    XXXX                XXXX        XXXX    XXXX            XXXX               .....",
".....                       XXXX        XXXX    XXXX                XXXX        XXXX    XXXX            XXXX               .....",
".....                       XXXX        XXXX    XXXX                XXXX        XXXX    XXXX            XXXX               .....",
".....                       XXXXXXXXXXXX        XXXX                XXXXXXXXXXXXXXXX        XXXXXXXXXXXX                   .....",
".....                       XXXXXXXXXXXX        XXXX                XXXXXXXXXXXXXXXX        XXXXXXXXXXXX                   .....",
".....                       XXXXXXXXXXXX        XXXX                XXXXXXXXXXXXXXXX        XXXXXXXXXXXX                   .....",
".....                       XXXXXXXXXXXX        XXXX                XXXXXXXXXXXXXXXX        XXXXXXXXXXXX                   .....",
".....                       XXXX                XXXX                XXXX        XXXX            XXXX                       .....",
".....                       XXXX                XXXX                XXXX        XXXX            XXXX                       .....",
".....                       XXXX                XXXX                XXXX        XXXX            XXXX                       .....",
".....                       XXXX                XXXX                XXXX        XXXX            XXXX                       .....",
".....                       XXXX                XXXXXXXXXXXXXXXX    XXXX        XXXX            XXXX                       .....",
".....                       XXXX                XXXXXXXXXXXXXXXX    XXXX        XXXX            XXXX                       .....",
".....                       XXXX                XXXXXXXXXXXXXXXX    XXXX        XXXX            XXXX                       .....",
".....                       XXXX                XXXXXXXXXXXXXXXX    XXXX        XXXX            XXXX                       .....",
".....                                                                                                                      .....",
".....                                                                                                                      .....",
".....                                                                                                                      .....",
".....                                                                                                                      .....",
".....                                                                                                                      .....",
".....                                                                                                                      .....",
".....                                                                                                                      .....",
".....                                                                                                                      .....",
".....                                                                                                                      .....",
".....                                                                                                                      .....",
".....                                                                                                                      .....",
".....                                                                                                                      .....",
".....                                                                                                                      .....",
".....                                                                                                                      .....",
".....                                                                                                                      .....",
".....                                                                                                                      .....",
"................................................................................................................................",
"................................................................................................................................",
"................................................................................................................................",
"................................................................................................................................"
};
