/* XPM */
static char *rcp13450767684707[] = {
/* columns rows colors chars-per-pixel */
"128 64 3 1 ",
"  c #2F3699",
". c #546D8E",
"X c white",
/* pixels */
"................................................................................................................................",
"................................................................................................................................",
"................................................................................................................................",
"................................................................................................................................",
".....                                                                                                                      .....",
".....                                                                                                                      .....",
".....                                                                                                                      .....",
".....                                                                                                                      .....",
".....                                                                                                                      .....",
".....                                                                                                                      .....",
".....                                                                                                                      .....",
".....                                                                                                                      .....",
".....                                                                                                                      .....",
".....                                                                                                                      .....",
".....                                                                                                                      .....",
".....                                                                                                                      .....",
".....                                                                                                                      .....",
".....                                                                                                                      .....",
".....                                                                                                                      .....",
".....                                                                                                                      .....",
".....                                                                                                                      .....",
".....                                                                                                                      .....",
".....                                                                                                                      .....",
".....                                                                                                                      .....",
".....                           XXXXXXXX        XXXX        XXXX    XXXXXXXXXXXX    XXXXXXXXXXXXXXXXXXXX                   .....",
".....                           XXXXXXXX        XXXX        XXXX    XXXXXXXXXXXX    XXXXXXXXXXXXXXXXXXXX                   .....",
".....                           XXXXXXXX        XXXX        XXXX    XXXXXXXXXXXX    XXXXXXXXXXXXXXXXXXXX                   .....",
".....                           XXXXXXXX        XXXX        XXXX    XXXXXXXXXXXX    XXXXXXXXXXXXXXXXXXXX                   .....",
".....                       XXXX        XXXX    XXXX        XXXX        XXXX                XXXX                           .....",
".....                       XXXX        XXXX    XXXX        XXXX        XXXX                XXXX                           .....",
".....                       XXXX        XXXX    XXXX        XXXX        XXXX                XXXX                           .....",
".....                       XXXX        XXXX    XXXX        XXXX        XXXX                XXXX                           .....",
".....                       XXXX        XXXX    XXXX        XXXX        XXXX                XXXX                           .....",
".....                       XXXX        XXXX    XXXX        XXXX        XXXX                XXXX                           .....",
".....                       XXXX        XXXX    XXXX        XXXX        XXXX                XXXX                           .....",
".....                       XXXX        XXXX    XXXX        XXXX        XXXX                XXXX                           .....",
".....                       XXXX    XXXX        XXXX        XXXX        XXXX                XXXX                           .....",
".....                       XXXX    XXXX        XXXX        XXXX        XXXX                XXXX                           .....",
".....                       XXXX    XXXX        XXXX        XXXX        XXXX                XXXX                           .....",
".....                       XXXX    XXXX        XXXX        XXXX        XXXX                XXXX                           .....",
".....                           XXXX    XXXX        XXXXXXXX        XXXXXXXXXXXX            XXXX                           .....",
".....                           XXXX    XXXX        XXXXXXXX        XXXXXXXXXXXX            XXXX                           .....",
".....                           XXXX    XXXX        XXXXXXXX        XXXXXXXXXXXX            XXXX                           .....",
".....                           XXXX    XXXX        XXXXXXXX        XXXXXXXXXXXX            XXXX                           .....",
".....                                                                                                                      .....",
".....                                                                                                                      .....",
".....                                                                                                                      .....",
".....                                                                                                                      .....",
".....                                                                                                                      .....",
".....                                                                                                                      .....",
".....                                                                                                                      .....",
".....                                                                                                                      .....",
".....                                                                                                                      .....",
".....                                                                                                                      .....",
".....                                                                                                                      .....",
".....                                                                                                                      .....",
".....                                                                                                                      .....",
".....                                                                                                                      .....",
".....                                                                                                                      .....",
".....                                                                                                                      .....",
"................................................................................................................................",
"................................................................................................................................",
"................................................................................................................................",
"................................................................................................................................"
};
